<?xml version="1.0" encoding="utf-8"?>
<!-- Generator: Adobe Illustrator 15.1.0, SVG Export Plug-In . SVG Version: 6.00 Build 0)  -->
<!DOCTYPE svg PUBLIC "-//W3C//DTD SVG 1.1//EN" "http://www.w3.org/Graphics/SVG/1.1/DTD/svg11.dtd">
<svg version="1.1" id="Layer_1" xmlns="http://www.w3.org/2000/svg" xmlns:xlink="http://www.w3.org/1999/xlink" x="0px" y="0px"
	 width="150px" height="50px" viewBox="0 0 150 50" enable-background="new 0 0 150 50" xml:space="preserve">
<g>
	<path fill="#231F20" d="M24.839,35.381c0.37,0.615,0.677,1.328,0.922,2.143c0.248,0.814,0.37,1.775,0.37,2.881
		c-1.23,0.492-2.382,0.807-3.456,0.944c-1.076,0.138-2.198,0.208-3.365,0.208c-1.998,0-3.733-0.314-5.209-0.945
		c-1.475-0.629-2.695-1.498-3.662-2.604c-0.97-1.106-1.701-2.42-2.191-3.941c-0.49-1.521-0.738-3.172-0.738-4.955
		c0-1.751,0.238-3.379,0.715-4.885s1.2-2.827,2.167-3.964s2.175-2.028,3.618-2.673c1.445-0.646,3.119-0.968,5.024-0.968
		c0.675,0,1.297,0.015,1.865,0.046s1.115,0.092,1.637,0.184c0.523,0.092,1.045,0.216,1.568,0.369
		c0.521,0.154,1.105,0.354,1.749,0.599c0,0.708-0.092,1.499-0.275,2.374c-0.184,0.876-0.477,1.713-0.875,2.513
		c-0.922-0.307-1.729-0.514-2.42-0.623c-0.69-0.107-1.482-0.162-2.374-0.162c-1.905,0-3.341,0.623-4.309,1.867
		c-0.969,1.245-1.452,3.02-1.452,5.323c0,2.489,0.521,4.303,1.565,5.439c1.045,1.137,2.46,1.705,4.242,1.705
		c0.46,0,0.882-0.006,1.267-0.023c0.384-0.016,0.762-0.053,1.129-0.115c0.368-0.061,0.746-0.153,1.13-0.275
		C23.865,35.719,24.317,35.564,24.839,35.381z"/>
	<path fill="#231F20" d="M29.817,17.175c0.462-0.092,0.898-0.162,1.313-0.208c0.416-0.046,0.868-0.07,1.361-0.07
		c0.46,0,0.912,0.032,1.358,0.093c0.445,0.062,0.884,0.138,1.313,0.23c0.094,0.154,0.177,0.376,0.254,0.668
		c0.076,0.292,0.146,0.599,0.208,0.922c0.062,0.322,0.115,0.645,0.16,0.968c0.048,0.322,0.085,0.592,0.116,0.806
		c0.676-0.953,1.504-1.805,2.489-2.559c0.983-0.752,2.212-1.129,3.687-1.129c0.307,0,0.66,0.017,1.061,0.046
		c0.398,0.032,0.691,0.078,0.875,0.139c0.061,0.308,0.108,0.661,0.139,1.06c0.031,0.4,0.045,0.815,0.045,1.244
		c0,0.523-0.021,1.092-0.068,1.706c-0.045,0.614-0.129,1.198-0.252,1.751c-0.34-0.062-0.715-0.092-1.13-0.092s-0.669,0-0.762,0
		c-0.523,0-1.105,0.054-1.752,0.162c-0.644,0.107-1.259,0.392-1.842,0.853c-0.585,0.461-1.067,1.152-1.452,2.074
		c-0.385,0.922-0.576,2.211-0.576,3.871v11.338c-0.554,0.092-1.105,0.154-1.659,0.185c-0.555,0.03-1.092,0.047-1.613,0.047
		c-0.523,0-1.054-0.017-1.589-0.047c-0.54-0.03-1.1-0.093-1.684-0.185V17.175z"/>
	<path fill="#231F20" d="M51.94,31.094c0.123,1.844,0.767,3.181,1.937,4.01c1.167,0.83,2.702,1.245,4.607,1.245
		c1.044,0,2.112-0.099,3.204-0.3c1.09-0.199,2.127-0.484,3.111-0.853c0.337,0.614,0.629,1.353,0.874,2.212
		c0.248,0.861,0.385,1.783,0.415,2.766c-2.396,0.922-5.1,1.383-8.111,1.383c-2.212,0-4.11-0.309-5.692-0.922
		c-1.583-0.615-2.872-1.467-3.87-2.559c-1-1.09-1.737-2.389-2.214-3.894c-0.477-1.506-0.715-3.15-0.715-4.933
		c0-1.752,0.248-3.395,0.738-4.932c0.49-1.536,1.222-2.872,2.19-4.01c0.967-1.137,2.165-2.035,3.594-2.696
		c1.429-0.661,3.097-0.991,5.002-0.991c1.657,0,3.134,0.292,4.424,0.876c1.289,0.584,2.389,1.382,3.296,2.396
		c0.906,1.014,1.59,2.22,2.052,3.619c0.46,1.398,0.691,2.897,0.691,4.494c0,0.584-0.023,1.16-0.071,1.729
		c-0.044,0.568-0.099,1.021-0.16,1.359H51.94z M61.298,26.53c-0.064-1.475-0.47-2.665-1.222-3.571
		c-0.755-0.907-1.807-1.359-3.157-1.359c-1.538,0-2.705,0.43-3.504,1.29c-0.8,0.86-1.276,2.074-1.43,3.641H61.298z"/>
	<path fill="#231F20" d="M83.605,25.333c0-0.737-0.123-1.337-0.368-1.798c-0.248-0.46-0.585-0.821-1.014-1.083
		c-0.432-0.261-0.963-0.438-1.592-0.531c-0.63-0.092-1.33-0.138-2.097-0.138c-1.66,0-3.427,0.323-5.301,0.968
		c-0.429-0.798-0.752-1.551-0.967-2.259c-0.217-0.707-0.323-1.551-0.323-2.535c1.352-0.46,2.702-0.798,4.056-1.014
		c1.352-0.214,2.61-0.322,3.78-0.322c3.195,0,5.692,0.769,7.489,2.304c1.797,1.537,2.695,3.994,2.695,7.375v13.826
		c-1.075,0.339-2.382,0.662-3.917,0.969c-1.537,0.307-3.272,0.461-5.209,0.461c-1.565,0-3.004-0.139-4.308-0.416
		c-1.307-0.275-2.429-0.736-3.365-1.381c-0.938-0.646-1.66-1.476-2.167-2.489c-0.508-1.015-0.76-2.259-0.76-3.734
		c0-1.475,0.313-2.71,0.943-3.71c0.63-0.998,1.445-1.797,2.443-2.396c1-0.6,2.112-1.029,3.342-1.291
		c1.229-0.26,2.459-0.391,3.688-0.391c0.892,0,1.875,0.045,2.95,0.137V25.333z M83.605,30.08c-0.368-0.063-0.769-0.115-1.198-0.161
		c-0.432-0.047-0.816-0.069-1.153-0.069c-1.504,0-2.695,0.269-3.572,0.807c-0.875,0.537-1.313,1.405-1.313,2.604
		c0,0.801,0.17,1.414,0.507,1.844c0.34,0.432,0.745,0.746,1.222,0.945c0.477,0.201,0.983,0.322,1.521,0.368
		c0.537,0.047,1.006,0.069,1.405,0.069c0.462,0,0.922-0.037,1.384-0.115c0.46-0.076,0.858-0.146,1.198-0.208V30.08z"/>
	<path fill="#231F20" d="M95.497,22.152H92.5l-0.229-0.922l8.618-11.016h1.06v6.96h5.577c0.092,0.461,0.152,0.876,0.184,1.244
		c0.03,0.369,0.047,0.753,0.047,1.153c0,0.43-0.017,0.845-0.047,1.244c-0.031,0.4-0.092,0.846-0.184,1.337h-5.577v9.355
		c0,0.953,0.077,1.723,0.23,2.306s0.375,1.044,0.668,1.383c0.292,0.339,0.653,0.568,1.084,0.69c0.43,0.123,0.937,0.185,1.521,0.185
		c0.46,0,0.912-0.038,1.358-0.114c0.445-0.076,0.837-0.146,1.176-0.207c0.215,0.583,0.368,1.19,0.461,1.82
		c0.092,0.629,0.139,1.19,0.139,1.682c0,0.339-0.01,0.622-0.023,0.854c-0.017,0.229-0.038,0.453-0.068,0.668
		c-1.415,0.337-2.875,0.507-4.379,0.507c-2.797,0-4.934-0.653-6.407-1.96c-1.474-1.305-2.212-3.434-2.212-6.383V22.152z"/>
	<path fill="#231F20" d="M112.872,22.152h-3.087c-0.093-0.399-0.161-0.822-0.208-1.267c-0.047-0.446-0.068-0.868-0.068-1.268
		c0-0.83,0.092-1.644,0.276-2.443h9.493v23.829c-1.105,0.184-2.181,0.276-3.226,0.276c-1.015,0-2.073-0.093-3.181-0.276V22.152z
		 M111.905,13.165c-0.185-1.044-0.276-2.074-0.276-3.088c0-0.983,0.092-2.013,0.276-3.088c0.521-0.092,1.082-0.162,1.681-0.208
		c0.602-0.046,1.146-0.069,1.637-0.069c0.523,0,1.092,0.023,1.705,0.069c0.615,0.046,1.184,0.116,1.707,0.208
		c0.092,0.522,0.153,1.037,0.184,1.543c0.031,0.507,0.045,1.022,0.045,1.544c0,0.492-0.014,0.999-0.045,1.521
		c-0.03,0.522-0.092,1.045-0.184,1.567c-0.523,0.092-1.085,0.155-1.684,0.184c-0.599,0.032-1.16,0.046-1.682,0.046
		c-0.493,0-1.044-0.014-1.66-0.046C112.994,13.319,112.426,13.257,111.905,13.165z"/>
	<path fill="#231F20" d="M124.811,7.864h18.806c0.184,0.922,0.276,1.86,0.276,2.812c0,1.014-0.093,1.982-0.276,2.904h-12.075v7.789
		h9.585c0.185,0.984,0.278,1.936,0.278,2.858c0,0.983-0.094,1.951-0.278,2.904h-9.585v13.873c-1.17,0.184-2.276,0.276-3.318,0.276
		c-1.139,0-2.275-0.093-3.412-0.276V7.864z"/>
</g>
</svg>
